<svg width="291" height="163" viewBox="0 0 291 163" fill="none" xmlns="http://www.w3.org/2000/svg">
<path d="M120.6 104.4C117.4 104.4 115.8 102.3 114.5 100.7C113.1 99 112.2 97.9 110.3 97.9C108.4 97.9 107.5 99 106.1 100.7C104.8 102.4 103.2 104.4 100 104.4C96.8 104.4 95.2 102.3 93.9 100.7C92.5 99 91.6 97.9 89.7 97.9C87.8 97.9 86.9 99 85.5 100.7C84.2 102.4 82.6 104.4 79.4 104.4C76.2 104.4 74.6 102.3 73.3 100.7C71.9 99 71 97.9 69.1 97.9V95.5C72.3 95.5 73.9 97.6 75.2 99.2C76.6 100.9 77.5 102 79.4 102C81.3 102 82.2 100.9 83.6 99.2C84.9 97.5 86.5 95.5 89.7 95.5C92.9 95.5 94.5 97.6 95.8 99.2C97.2 100.9 98.1 102 100 102C101.9 102 102.8 100.9 104.2 99.2C105.5 97.5 107.1 95.5 110.3 95.5C113.5 95.5 115.1 97.6 116.4 99.2C117.8 100.9 118.7 102 120.6 102C122.5 102 123.4 100.9 124.8 99.2C126.1 97.5 127.8 95.5 130.9 95.5V97.9C129 97.9 128.1 99 126.7 100.7C125.4 102.4 123.7 104.4 120.6 104.4ZM120.6 116.2C117.4 116.2 115.8 114.1 114.5 112.5C113.1 110.8 112.2 109.7 110.3 109.7C108.4 109.7 107.5 110.8 106.1 112.5C104.8 114.2 103.2 116.2 100 116.2C96.8 116.2 95.2 114.1 93.9 112.5C92.5 110.8 91.6 109.7 89.7 109.7C87.8 109.7 86.9 110.8 85.5 112.5C84.2 114.2 82.6 116.2 79.4 116.2C76.2 116.2 74.6 114.1 73.3 112.5C71.9 110.8 71 109.7 69.1 109.7V107.3C72.3 107.3 73.9 109.4 75.2 111C76.6 112.7 77.5 113.8 79.4 113.8C81.3 113.8 82.2 112.7 83.6 111C84.9 109.3 86.5 107.3 89.7 107.3C92.9 107.3 94.5 109.4 95.8 111C97.2 112.7 98.1 113.8 100 113.8C101.9 113.8 102.8 112.7 104.2 111C105.5 109.3 107.1 107.3 110.3 107.3C113.5 107.3 115.1 109.4 116.4 111C117.8 112.7 118.7 113.8 120.6 113.8C122.5 113.8 123.4 112.7 124.8 111C126.1 109.3 127.8 107.3 130.9 107.3V109.7C129 109.7 128.1 110.8 126.7 112.5C125.4 114.2 123.7 116.2 120.6 116.2ZM120.6 127.9C117.4 127.9 115.8 125.8 114.5 124.2C113.1 122.5 112.2 121.4 110.3 121.4C108.4 121.4 107.5 122.5 106.1 124.2C104.8 125.9 103.2 127.9 100 127.9C96.8 127.9 95.2 125.8 93.9 124.2C92.5 122.5 91.6 121.4 89.7 121.4C87.8 121.4 86.9 122.5 85.5 124.2C84.2 125.9 82.6 127.9 79.4 127.9C76.2 127.9 74.6 125.8 73.3 124.2C71.9 122.5 71 121.4 69.1 121.4V119C72.3 119 73.9 121.1 75.2 122.7C76.6 124.4 77.5 125.5 79.4 125.5C81.3 125.5 82.2 124.4 83.6 122.7C84.9 121 86.5 119 89.7 119C92.9 119 94.5 121.1 95.8 122.7C97.2 124.4 98.1 125.5 100 125.5C101.9 125.5 102.8 124.4 104.2 122.7C105.5 121 107.1 119 110.3 119C113.5 119 115.1 121.1 116.4 122.7C117.8 124.4 118.7 125.5 120.6 125.5C122.5 125.5 123.4 124.4 124.8 122.7C126.1 121 127.8 119 130.9 119V121.4C129 121.4 128.1 122.5 126.7 124.2C125.4 125.9 123.7 127.9 120.6 127.9ZM120.6 139.7C117.4 139.7 115.8 137.6 114.5 136C113.1 134.3 112.2 133.2 110.3 133.2C108.4 133.2 107.5 134.3 106.1 136C104.8 137.7 103.2 139.7 100 139.7C96.8 139.7 95.2 137.6 93.9 136C92.5 134.3 91.6 133.2 89.7 133.2C87.8 133.2 86.9 134.3 85.5 136C84.2 137.7 82.6 139.7 79.4 139.7C76.2 139.7 74.6 137.6 73.3 136C71.9 134.3 71 133.2 69.1 133.2V130.8C72.3 130.8 73.9 132.9 75.2 134.5C76.6 136.2 77.5 137.3 79.4 137.3C81.3 137.3 82.2 136.2 83.6 134.5C84.9 132.8 86.5 130.8 89.7 130.8C92.9 130.8 94.5 132.9 95.8 134.5C97.2 136.2 98.1 137.3 100 137.3C101.9 137.3 102.8 136.2 104.2 134.5C105.5 132.8 107.1 130.8 110.3 130.8C113.5 130.8 115.1 132.9 116.4 134.5C117.8 136.2 118.7 137.3 120.6 137.3C122.5 137.3 123.4 136.2 124.8 134.5C126.1 132.8 127.8 130.8 130.9 130.8V133.2C129 133.2 128.1 134.3 126.7 136C125.4 137.7 123.7 139.7 120.6 139.7ZM134.7 42.9C134.7 62.4 125.2 78.3 113.6 78.3C102 78.3 92.5 62.4 92.5 42.9C92.5 23.4 102 7.5 113.6 7.5C125.2 7.5 134.7 23.4 134.7 42.9ZM114.8 10V39.7L122.6 26.3L124.7 27.5L116.5 41.7H132.2C131.8 24.8 124.3 11.1 114.8 10ZM94.9 41.7H110.8L101.1 28L103.1 26.6L112.3 39.6V10C102.8 11.1 95.2 24.8 94.9 41.7ZM112.4 75.8V48.8L105.2 61.3L103.1 60.1L112.3 44.1H95C95.4 61 102.9 74.7 112.4 75.8ZM132.2 44.1H115.5L125.7 58.5L123.7 59.9L114.7 47.2V75.8C124.2 74.7 131.8 61 132.1 44.1H132.2ZM198.7 95.6C198.7 101 196.5 105.9 193.1 109.5C194.5 109.2 196 109 197.5 109H198.7V110.2C198.7 115.6 196.6 120.5 193.1 124.1C194.5 123.8 196 123.6 197.5 123.6H198.7V124.8C198.7 135.4 190.4 144.1 179.9 144.8V154.9H177.5V144.8C167 144.2 158.7 135.5 158.7 124.8V123.6H159.9C161.4 123.6 162.9 123.8 164.3 124.1C160.8 120.5 158.7 115.6 158.7 110.2V109H159.9C161.4 109 162.9 109.2 164.3 109.5C160.8 105.9 158.7 101 158.7 95.6V94.4H159.9C167.5 94.4 174.1 98.6 177.5 104.9V95.7H179.9V104.9C183.3 98.7 189.9 94.4 197.5 94.4H198.7V95.6ZM177.4 115.5C176.3 115.5 175.2 115.3 174.2 115.1C175.4 116.4 176.5 117.8 177.4 119.4V115.5ZM177.4 130.1C176.3 130.1 175.3 129.9 174.2 129.7C175.4 131 176.5 132.4 177.4 134V130.1ZM179.9 134C180.8 132.4 181.8 131 183.1 129.7C182.1 129.9 181 130.1 179.9 130.1V134ZM179.9 119.4C180.8 117.8 181.9 116.4 183.1 115.1C182.1 115.3 181 115.5 179.9 115.5V119.4ZM161.1 96.8C161.7 105.5 168.7 112.5 177.4 113.1C176.8 104.4 169.8 97.4 161.1 96.8ZM161.1 111.4C161.7 120.1 168.7 127.1 177.4 127.7C176.8 119 169.8 112 161.1 111.4ZM177.4 142.3C176.8 133.6 169.8 126.6 161.1 126C161.7 134.7 168.7 141.7 177.4 142.3ZM196.2 126C187.5 126.6 180.5 133.6 179.9 142.3C188.6 141.7 195.6 134.7 196.2 126ZM196.2 111.4C187.5 112 180.5 119 179.9 127.7C188.6 127.1 195.6 120.1 196.2 111.4ZM196.2 96.8C187.5 97.4 180.5 104.4 179.9 113.1C188.6 112.5 195.6 105.5 196.2 96.8ZM40.5 128.2C40 127.3 39.2 126.6 38.4 126.1C37.5 125.6 36.4 125 35.1 124.5L31.9 123.2C30.1 122.5 29 121.8 28.3 121C27.7 120.2 27.3 119.2 27.3 117.9C27.3 116.6 27.7 115.6 28.6 114.9C29.4 114.2 30.6 113.9 32.1 113.9C33.6 113.9 35.6 114.2 36.8 114.7L37.4 118.3H39.8L40.3 112.7H40.1C39 112.3 37.9 112 36.9 111.9C35.8 111.7 34.4 111.6 32.9 111.6C31.4 111.6 29.7 111.9 28.4 112.6C27.7 113 27.1 113.4 26.6 113.9L26.4 114.1V98H31.9C32.4 98 32.8 98 33 98.2C33.2 98.4 33.4 98.7 33.4 99.2L33.6 101.9H35.7L35.9 95.5H13.7L13.9 101.9H16L16.3 99.2C16.3 98.7 16.5 98.4 16.7 98.3C16.9 98.1 17.3 98.1 17.8 98.1H23.3V119C23.3 119.5 23.3 119.9 23.1 120.1C22.9 120.3 22.6 120.5 22.1 120.5L20 120.8V122.8H25.5C25.5 122.8 25.5 122.8 25.5 123C26.5 124.1 27.8 125 29.6 125.7L33.8 127.4C35 127.9 35.9 128.4 36.5 128.8C37.1 129.3 37.6 129.7 37.8 130.3C38 130.8 38.2 131.5 38.2 132.2C38.2 132.9 37.9 134.1 37.4 134.8C36.9 135.5 36.1 136.2 35.2 136.6C34.3 137 33.4 137.2 32.4 137.2C30.4 137.2 28.6 136.9 27.1 136.2L26.5 131.9H24.1L23.7 137.9H23.9C26.2 139 28.8 139.6 31.6 139.6C34.4 139.6 35 139.2 36.5 138.5C38 137.8 39.1 136.8 39.9 135.6C40.7 134.4 41.1 133 41.1 131.6C41.1 130.2 40.8 129.1 40.3 128.2H40.5ZM188.9 53.5C188.4 52.6 187.6 51.9 186.8 51.4C185.9 50.9 184.8 50.3 183.5 49.8L180.3 48.5C178.5 47.8 177.4 47.1 176.7 46.3C176 45.5 175.7 44.5 175.7 43.2C175.7 41.9 176.1 40.9 177 40.2C177.8 39.5 179 39.2 180.5 39.2C182 39.2 184 39.5 185.2 40L185.8 43.6H188.2L188.7 38H188.5C187.4 37.6 186.3 37.3 185.3 37.2C184.2 37 182.8 36.9 181.3 36.9C179.8 36.9 178.1 37.2 176.8 37.9C176.1 38.3 175.5 38.7 175 39.2L174.8 39.4V23.3H180.3C180.8 23.3 181.2 23.3 181.4 23.5C181.6 23.7 181.8 24 181.8 24.5L182 27.2H184.1L184.3 20.8H162L162.2 27.2H164.3L164.6 24.5C164.6 24 164.8 23.7 165 23.6C165.2 23.4 165.6 23.4 166.1 23.4H171.6V44.3C171.6 44.8 171.6 45.2 171.4 45.4C171.2 45.6 170.9 45.8 170.4 45.8L168.3 46.1V48.1H173.8C173.8 48.1 173.8 48.1 173.8 48.3C174.8 49.4 176.1 50.3 177.9 51L182.1 52.7C183.3 53.2 184.2 53.7 184.8 54.1C185.4 54.6 185.9 55 186.1 55.6C186.3 56.1 186.5 56.8 186.5 57.5C186.5 58.2 186.2 59.4 185.7 60.1C185.2 60.9 184.4 61.5 183.5 61.9C182.6 62.3 181.7 62.5 180.7 62.5C178.7 62.5 176.9 62.2 175.4 61.5L174.8 57.2H172.4L172 63.2H172.2C174.5 64.3 177.1 64.9 179.9 64.9C182.7 64.9 183.3 64.5 184.8 63.8C186.3 63.1 187.4 62.1 188.2 60.9C189 59.7 189.4 58.3 189.4 56.9C189.4 55.5 189.1 54.4 188.6 53.5H188.9ZM53.4 19C53.4 24.4 51.2 29.3 47.8 32.9C49.2 32.6 50.7 32.4 52.2 32.4H53.4V33.6C53.4 39 51.3 43.9 47.8 47.5C49.2 47.2 50.7 47 52.2 47H53.4V48.2C53.4 58.8 45.1 67.5 34.6 68.2V78.3H32.2V68.2C21.7 67.6 13.4 58.9 13.4 48.2V47H14.6C16.1 47 17.6 47.2 19 47.5C15.5 43.9 13.4 39 13.4 33.6V32.4H14.6C16.1 32.4 17.6 32.6 19 32.9C15.5 29.3 13.4 24.4 13.4 19V17.8H14.6C22.2 17.8 28.8 22 32.2 28.3V19.1H34.6V28.3C38 22.1 44.6 17.8 52.2 17.8H53.4V19ZM32.2 39C31.1 39 30 38.8 29 38.6C30.2 39.9 31.3 41.3 32.2 42.9V39ZM32.2 53.6C31.1 53.6 30.1 53.4 29 53.2C30.2 54.5 31.3 55.9 32.2 57.5V53.6ZM34.6 57.4C35.5 55.8 36.5 54.4 37.8 53.1C36.8 53.3 35.7 53.5 34.6 53.5V57.4ZM34.6 42.9C35.5 41.3 36.6 39.9 37.8 38.6C36.8 38.8 35.7 39 34.6 39V42.9ZM15.8 20.3C16.4 29 23.4 36 32.1 36.6C31.5 27.9 24.5 20.9 15.8 20.3ZM15.8 34.9C16.4 43.6 23.4 50.6 32.1 51.2C31.5 42.5 24.5 35.5 15.8 34.9ZM32.1 65.8C31.5 57.1 24.5 50.1 15.8 49.5C16.4 58.2 23.4 65.2 32.1 65.8ZM50.9 49.5C42.2 50.1 35.2 57.1 34.6 65.8C43.3 65.2 50.3 58.2 50.9 49.5ZM50.9 34.9C42.2 35.5 35.2 42.5 34.6 51.2C43.3 50.6 50.3 43.6 50.9 34.9ZM50.9 20.3C42.2 20.9 35.2 27.9 34.6 36.6C43.3 36 50.3 29 50.9 20.3ZM268.6 119.6C268.6 139.1 259.1 155 247.5 155C235.9 155 226.4 139.1 226.4 119.6C226.4 100.1 235.9 84.2 247.5 84.2C259.1 84.2 268.6 100.1 268.6 119.6ZM248.7 86.7V116.4L256.5 103L258.6 104.2L250.4 118.4H266.1C265.7 101.5 258.2 87.8 248.7 86.7ZM228.8 118.4H244.7L235 104.7L237 103.3L246.2 116.3V86.7C236.7 87.8 229.1 101.5 228.8 118.4ZM246.3 152.5V125.5L239.1 138L237 136.8L246.2 120.8H228.9C229.3 137.7 236.8 151.4 246.3 152.5ZM266.1 120.8H249.4L259.6 135.2L257.6 136.6L248.6 123.9V152.5C258.1 151.4 265.7 137.7 266 120.8H266.1ZM266.9 33.1C263.7 33.1 262.1 31 260.8 29.4C259.4 27.7 258.5 26.6 256.6 26.6C254.7 26.6 253.8 27.7 252.4 29.4C251.1 31.1 249.5 33.1 246.3 33.1C243.1 33.1 241.5 31 240.2 29.4C238.8 27.7 237.9 26.6 236 26.6C234.1 26.6 233.2 27.7 231.8 29.4C230.5 31.1 228.9 33.1 225.7 33.1C222.5 33.1 220.9 31 219.6 29.4C218.2 27.7 217.3 26.6 215.4 26.6V24.2C218.6 24.2 220.2 26.3 221.5 27.9C222.9 29.6 223.8 30.7 225.7 30.7C227.6 30.7 228.5 29.6 229.9 27.9C231.2 26.2 232.8 24.2 236 24.2C239.2 24.2 240.8 26.3 242.1 27.9C243.5 29.6 244.4 30.7 246.3 30.7C248.2 30.7 249.1 29.6 250.5 27.9C251.8 26.2 253.4 24.2 256.6 24.2C259.8 24.2 261.4 26.3 262.7 27.9C264.1 29.6 265 30.7 266.9 30.7C268.8 30.7 269.7 29.6 271.1 27.9C272.4 26.2 274.1 24.2 277.2 24.2V26.6C275.3 26.6 274.4 27.7 273 29.4C271.7 31.1 270 33.1 266.9 33.1ZM266.9 44.9C263.7 44.9 262.1 42.8 260.8 41.2C259.4 39.5 258.5 38.4 256.6 38.4C254.7 38.4 253.8 39.5 252.4 41.2C251.1 42.9 249.5 44.9 246.3 44.9C243.1 44.9 241.5 42.8 240.2 41.2C238.8 39.5 237.9 38.4 236 38.4C234.1 38.4 233.2 39.5 231.8 41.2C230.5 42.9 228.9 44.9 225.7 44.9C222.5 44.9 220.9 42.8 219.6 41.2C218.2 39.5 217.3 38.4 215.4 38.4V36C218.6 36 220.2 38.1 221.5 39.7C222.9 41.4 223.8 42.5 225.7 42.5C227.6 42.5 228.5 41.4 229.9 39.7C231.2 38 232.8 36 236 36C239.2 36 240.8 38.1 242.1 39.7C243.5 41.4 244.4 42.5 246.3 42.5C248.2 42.5 249.1 41.4 250.5 39.7C251.8 38 253.4 36 256.6 36C259.8 36 261.4 38.1 262.7 39.7C264.1 41.4 265 42.5 266.9 42.5C268.8 42.5 269.7 41.4 271.1 39.7C272.4 38 274.1 36 277.2 36V38.4C275.3 38.4 274.4 39.5 273 41.2C271.7 42.9 270 44.9 266.9 44.9ZM266.9 56.6C263.7 56.6 262.1 54.5 260.8 52.9C259.4 51.2 258.5 50.1 256.6 50.1C254.7 50.1 253.8 51.2 252.4 52.9C251.1 54.6 249.5 56.6 246.3 56.6C243.1 56.6 241.5 54.5 240.2 52.9C238.8 51.2 237.9 50.1 236 50.1C234.1 50.1 233.2 51.2 231.8 52.9C230.5 54.6 228.9 56.6 225.7 56.6C222.5 56.6 220.9 54.5 219.6 52.9C218.2 51.2 217.3 50.1 215.4 50.1V47.7C218.6 47.7 220.2 49.8 221.5 51.4C222.9 53.1 223.8 54.2 225.7 54.2C227.6 54.2 228.5 53.1 229.9 51.4C231.2 49.7 232.8 47.7 236 47.7C239.2 47.7 240.8 49.8 242.1 51.4C243.5 53.1 244.4 54.2 246.3 54.2C248.2 54.2 249.1 53.1 250.5 51.4C251.8 49.7 253.4 47.7 256.6 47.7C259.8 47.7 261.4 49.8 262.7 51.4C264.1 53.1 265 54.2 266.9 54.2C268.8 54.2 269.7 53.1 271.1 51.4C272.4 49.7 274.1 47.7 277.2 47.7V50.1C275.3 50.1 274.4 51.2 273 52.9C271.7 54.6 270 56.6 266.9 56.6ZM266.9 68.4C263.7 68.4 262.1 66.3 260.8 64.7C259.4 63 258.5 61.9 256.6 61.9C254.7 61.9 253.8 63 252.4 64.7C251.1 66.4 249.5 68.4 246.3 68.4C243.1 68.4 241.5 66.3 240.2 64.7C238.8 63 237.9 61.9 236 61.9C234.1 61.9 233.2 63 231.8 64.7C230.5 66.4 228.9 68.4 225.7 68.4C222.5 68.4 220.9 66.3 219.6 64.7C218.2 63 217.3 61.9 215.4 61.9V59.5C218.6 59.5 220.2 61.6 221.5 63.2C222.9 64.9 223.8 66 225.7 66C227.6 66 228.5 64.9 229.9 63.2C231.2 61.5 232.8 59.5 236 59.5C239.2 59.5 240.8 61.6 242.1 63.2C243.5 64.9 244.4 66 246.3 66C248.2 66 249.1 64.9 250.5 63.2C251.8 61.5 253.4 59.5 256.6 59.5C259.8 59.5 261.4 61.6 262.7 63.2C264.1 64.9 265 66 266.9 66C268.8 66 269.7 64.9 271.1 63.2C272.4 61.5 274.1 59.5 277.2 59.5V61.9C275.3 61.9 274.4 63 273 64.7C271.7 66.4 270 68.4 266.9 68.4Z" fill="#1C362A"/>
</svg>
